<?xml version="1.0" encoding="UTF-8" standalone="no"?>
<!-- Created with Inkscape (http://www.inkscape.org/) -->

<svg
   width="1920"
   height="1080"
   viewBox="0 0 1920 1080"
   version="1.1"
   id="svg1"
   inkscape:export-filename="Schuh2.svg"
   inkscape:export-xdpi="96"
   inkscape:export-ydpi="96"
   inkscape:version="1.3 (0e150ed6c4, 2023-07-21)"
   sodipodi:docname="Schuh.svg"
   xmlns:inkscape="http://www.inkscape.org/namespaces/inkscape"
   xmlns:sodipodi="http://sodipodi.sourceforge.net/DTD/sodipodi-0.dtd"
   xmlns="http://www.w3.org/2000/svg"
   xmlns:svg="http://www.w3.org/2000/svg">
  <sodipodi:namedview
     id="namedview1"
     pagecolor="#ffffff"
     bordercolor="#000000"
     borderopacity="0.25"
     inkscape:showpageshadow="2"
     inkscape:pageopacity="0.0"
     inkscape:pagecheckerboard="0"
     inkscape:deskcolor="#d1d1d1"
     inkscape:document-units="px"
     inkscape:zoom="0.50307701"
     inkscape:cx="876.60535"
     inkscape:cy="466.13142"
     inkscape:window-width="1920"
     inkscape:window-height="1009"
     inkscape:window-x="-8"
     inkscape:window-y="-8"
     inkscape:window-maximized="1"
     inkscape:current-layer="layer1" />
  <defs
     id="defs1" />
  <g
     inkscape:label="Ebene 1"
     inkscape:groupmode="layer"
     id="layer1">
    <path
       style="fill:#252525;fill-opacity:1;stroke:#000000;stroke-width:26.904;stroke-dasharray:none;stroke-opacity:1"
       d="m 185.2075,1033.5841 c 52.40741,-3.1192 104.91848,-9.1156 157.38942,-11.7205 28.64724,-1.4223 57.34704,-1.1411 86.01514,-1.9535 125.68113,-3.5615 251.26401,-8.7655 377.00256,-9.7671 104.26596,-0.8306 208.70478,0 312.94878,0 9.2783,-10.47756 11.269,-25.32024 18.3011,-37.11516 2.097,-3.51752 5.097,-6.33913 7.3204,-9.76714 16.6538,-25.67639 32.5196,-59.50429 43.9227,-87.90426 7.2953,-18.16947 7.6568,-28.52887 14.6408,-44.92887 0.9101,-2.13729 2.9646,-3.63303 3.6602,-5.86029 1.6505,-5.28513 -2.0487,-5.62701 1.8302,-9.76714 0.4314,-0.46042 1.2199,0 1.83,0 5.4903,0 10.9806,0 16.471,0 72.2569,0 -27.1124,-1.06511 56.7334,3.90687 22.5448,1.33687 45.1533,0.97052 67.7141,1.95342 88.9099,3.87352 -36.1242,0.0243 40.2623,3.90685 10.9683,0.5575 21.9857,-0.77964 32.9421,0 4.9073,0.34921 9.731,1.64516 14.6407,1.95345 5.4809,0.34411 11.0144,-0.64717 16.4711,0 0.105,0.0125 -0.146,16.17739 0,17.58084 1.2861,12.35495 2.6988,24.80036 3.6601,37.11515 1.0092,12.92475 -1.1001,26.15256 0,39.06855 3.027,35.53823 0.218,-10.09178 5.4904,29.30143 3.0502,22.78999 -2.0333,2.17048 0,19.53429 2.126,18.15423 1.8301,0.72593 1.8301,11.72057 0,2.82378 -0.8324,9.05495 0,11.72057 0.9319,2.98368 1.8301,2.28019 1.8301,5.86028 0,1.95339 0,3.90689 0,5.86029 0,0.6511 -0.5981,1.8258 0,1.9534 16.153,3.4483 49.1889,-1.317 65.8839,-1.9534 26.7392,-1.0193 53.771,0 80.5249,0 28.6717,0 57.3434,0 86.0151,0 16.0596,0 33.4128,1.4232 49.4129,0 1.3595,-0.1209 2.3369,-1.6003 3.6604,-1.9534 7.3905,-1.9722 16.1148,-4.8361 23.7913,-5.86031 19.4195,-2.591 39.4878,3.13688 58.5635,-1.95344 3.0178,-0.80526 6.0824,-1.40758 9.1505,-1.95342 0.9065,-0.16127 4.8844,0.64686 5.4904,0 0.8627,-0.92086 -0.2958,-2.64345 0,-3.90686 2.7227,-11.62461 7.9021,-23.16795 9.1507,-35.16171 0.6736,-6.4716 -0.2772,-13.02956 0,-19.53429 1.5801,-37.10909 4.4659,-74.17444 5.4901,-111.34541 0.6266,-22.73768 0,-45.62231 0,-68.36999 0,-13.02286 1.1047,-26.09918 0,-39.06855 -5.9445,-52.87581 -5.1097,-41.49307 -9.1505,-91.81115 -1.9982,-24.88324 -2.6466,-49.34654 -3.6602,-74.23027 -1.2254,-30.0836 -7.9416,-60.40725 -12.8107,-89.8577 -1.2897,-7.80096 -1.7869,-15.77617 -3.6603,-23.44113 -1.8022,-7.37465 -5.0625,-14.25741 -7.3204,-21.48773 -7.646,-24.48396 -7.6155,-29.4901 -16.4709,-54.69599 -3.938,-11.20891 -8.9058,-21.98626 -12.8108,-33.20828 -39.467,-113.4172 17.5375,45.25114 -20.1312,-72.27685 -4.0709,-12.70099 -10.1494,-24.57674 -14.6409,-37.11515 -6.4776,-18.08311 -12.1407,-36.48698 -18.3011,-54.69598 -24.7266,-73.087882 -3.0214,-17.55879 -34.7721,-89.85771 -2.55,-5.806721 -5.5534,-11.451435 -7.3205,-17.580851 -0.5068,-1.758771 1.9048,-8.438316 -1.8301,-9.767143 -3.7825,-1.345797 -14.3166,3.843959 -14.6407,3.906859 -3.0011,0.582404 -6.1019,-0.09868 -9.1506,0 -17.0842,0.552579 -34.1596,1.383585 -51.2432,1.953424 -12.0677,0.402524 -15.0222,1.623808 -29.2816,3.90686 -31.5856,5.057072 -5.1661,-0.303778 -34.7723,1.953423 -13.3768,1.019879 -26.8312,6.220822 -40.2623,7.813721 -23.2127,2.75298 -46.0424,6.083677 -69.5441,7.813707 -24.9653,1.837751 -50.043,4.700481 -75.0345,5.860284 -37.0007,1.717131 -74.6379,0 -111.6368,0 -17.9277,0 -37.0047,-1.736771 -54.9031,0 -6.8242,0.662175 -13.4201,2.712939 -20.1312,3.90686 -1.2035,0.214096 -2.5691,-0.582403 -3.6602,0 -7.5276,4.017376 -10.681,18.631606 -14.641,25.394566 -4.5541,7.7777 -9.3653,9.88115 -14.6408,19.53428 -1.6553,3.02885 -2.191,6.63084 -3.6603,9.76714 -3.1815,6.79191 -7.3204,13.02287 -10.9806,19.53428 -1.8301,3.25573 -3.4228,6.67759 -5.4903,9.76717 -1.0029,1.49865 -2.8422,2.28526 -3.6602,3.90685 -3.4947,6.92736 -5.5369,14.63034 -9.1506,21.48771 -0.9122,1.73084 -16.2668,21.21033 -16.471,21.48771 -7.5379,10.24009 -13.6593,21.71178 -21.9613,31.25485 -3.8271,4.39914 -8.9959,7.30937 -12.8108,11.72058 -3.5594,4.11588 -5.791,9.37093 -9.1505,13.67399 -13.7509,17.61297 -33.473,39.76481 -51.2431,52.74255 -11.4918,8.39268 -24.55168,14.04101 -36.60217,21.48772 -28.24693,17.45543 -56.11827,34.65284 -86.01515,48.83571 -20.62915,9.78632 -34.97563,14.79609 -56.7334,21.48771 -26.16923,8.04837 -52.22451,16.60554 -78.69472,23.44115 -11.40524,2.94526 -23.1891,3.85538 -34.77208,5.86028 -53.99765,9.3464 -11.8641,2.83126 -62.22371,9.76714 -32.2404,4.44036 -70.46781,10.50457 -100.65603,13.67401 -53.49275,5.6161 -107.58888,0.80596 -161.04964,7.81369 -77.78433,10.19614 -130.43178,30.75043 -193.99161,80.09057 -20.88603,16.21337 2.85144,-1.23403 -18.30109,17.58086 -4.03143,3.58588 -8.74925,6.22016 -12.81077,9.76713 -8.41936,7.35275 -14.72961,16.90368 -21.96132,25.39458 -9.69831,11.38702 -18.7411,21.39159 -25.62153,35.16171 -4.23863,8.48294 -9.15264,16.60917 -12.81077,25.39457 -1.56696,3.76324 -1.93476,8.03715 -3.66021,11.72056 -1.36409,2.912 -3.66022,5.20914 -5.49032,7.81371 -3.660226,6.51144 -7.999414,12.63964 -10.980672,19.5343 -0.766918,1.77363 0.818454,4.11309 0,5.86027 -9.966503,21.27616 -23.445784,39.15016 -29.281753,62.5097 -3.347302,13.39823 -4.329605,27.3937 -5.490328,41.02202 -0.281619,3.30653 -1.220069,6.51141 -1.830104,9.76714 -0.610035,6.51141 -1.470102,13.00166 -1.830104,19.53426 -0.877659,15.92545 1.562351,31.20776 3.660208,46.88229 1.066585,7.96915 0.601676,15.57384 1.830118,23.44115 0.366748,2.3488 5.01913,8.59359 5.490327,9.76712 2.232451,5.56009 2.347578,11.97651 3.660222,17.58087 0.759733,3.24371 2.832018,5.16169 3.66021,7.8137 0.543214,1.73945 0.567394,12.93182 1.830119,15.62744 1.157453,2.4709 4.054663,3.56169 5.490327,5.86028 3.833447,6.13765 4.162447,14.21009 9.150548,19.53429 1.138432,1.21514 9.118287,9.10447 10.980656,9.76717 1.157466,0.4118 2.568946,-0.5824 3.660226,0 29.23748,15.6038 -1.60432,0.8117 16.47098,13.674 1.60511,1.1421 3.76488,1.0326 5.49032,1.9534 3.93462,2.0999 7.04605,5.7138 10.98066,7.8137 1.09126,0.5824 2.52741,-0.4837 3.66023,0 2.53303,1.0815 4.7874,2.8254 7.32042,3.9069 3.60789,1.5404 9.05624,-1.0019 12.81078,0 8.27725,2.2088 16.92655,2.0506 25.62153,3.9068 z"
       id="path1" />
  </g>
</svg>
